<svg viewBox="0 0 48 48" fill="fill" xmlns="http://www.w3.org/2000/svg">
    <path d="M24 3.99999C13.34 13.1 8 20.96 8 27.6C8 37.56 15.6 44 24 44C32.4 44 40 37.56 40 27.6C40 20.96 34.66 13.1 24 3.99999ZM15.66 28C16.4 28 17 28.52 17.14 29.24C17.96 33.68 21.7 35.2 24.42 34.98C25.28 34.94 26 35.62 26 36.48C26 37.28 25.36 37.94 24.56 37.98C20.3 38.24 15.32 35.8 14.18 29.74C14.1452 29.5256 14.1575 29.3061 14.2158 29.0969C14.2742 28.8877 14.3773 28.6936 14.5181 28.5281C14.6588 28.3627 14.8338 28.2297 15.031 28.1386C15.2282 28.0474 15.4428 28.0001 15.66 28V28Z"
          fill="fill"/>
</svg>
