<svg width="884" height="304" viewBox="0 0 884 304" fill="none" xmlns="http://www.w3.org/2000/svg">
    <g clip-path="url(#clip0_705_1912)">
        <path d="M113.598 177.027H50.8151C45.8742 177.043 41.042 175.579 36.9424 172.825C32.8428 170.071 29.6638 166.153 27.816 161.577L1.82988 97.8663C-0.628554 91.8719 -0.628554 85.1528 1.82988 79.1584L27.816 15.4405C29.665 10.8659 32.8444 6.94952 36.9439 4.19685C41.0434 1.44418 45.875 -0.0184944 50.8151 -0.0024326H113.598V20.4965H50.8151C49.957 20.4931 49.1176 20.7466 48.4052 21.2243C47.6928 21.7019 47.1401 22.3817 46.8183 23.1761L20.8393 86.887C20.4157 87.9293 20.4157 89.0954 20.8393 90.1377L46.8183 153.849C47.1401 154.643 47.6928 155.323 48.4052 155.8C49.1176 156.278 49.957 156.532 50.8151 156.528H113.598V177.027Z"
              fill="black"/>
        <path d="M855.029 177.029H834.502V139.959H752.765C751.147 139.96 749.552 139.578 748.11 138.845C746.667 138.113 745.419 137.05 744.467 135.743C743.514 134.437 742.885 132.924 742.63 131.328C742.375 129.732 742.502 128.099 743 126.561L778.639 16.162C778.716 15.9152 778.801 15.6754 778.9 15.4569C780.749 10.8822 783.928 6.96588 788.028 4.21321C792.127 1.46054 796.959 -0.00213697 801.899 0.0139248H844.762C847.484 0.0139242 850.094 1.09318 852.019 3.01446C853.945 4.93574 855.027 7.54181 855.029 10.2598V119.46H883.981V139.959H855.029V177.029ZM766.853 119.46H834.502V20.4987H801.899C801.089 20.4961 800.295 20.7226 799.609 21.1519C798.923 21.5812 798.373 22.1958 798.022 22.9245L766.853 119.46Z"
              fill="black"/>
        <path d="M401.267 177.029H338.484V156.53H401.267C402.124 156.532 402.962 156.278 403.673 155.801C404.384 155.323 404.936 154.644 405.257 153.851L431.243 90.1399C431.667 89.1001 431.667 87.936 431.243 86.8962L405.257 23.1712C404.934 22.3793 404.382 21.7017 403.671 21.2255C402.96 20.7493 402.123 20.4962 401.267 20.4987H338.484V-0.000235335H401.267C406.207 -0.0162971 411.039 1.44638 415.138 4.19905C419.238 6.95172 422.417 10.8681 424.266 15.4427L450.252 79.1606C452.711 85.1549 452.711 91.8741 450.252 97.8684L424.273 161.579C422.425 166.156 419.245 170.075 415.144 172.829C411.043 175.583 406.209 177.046 401.267 177.029Z"
              fill="black"/>
        <path d="M249.47 177.03H201.939C196.998 177.045 192.166 175.581 188.067 172.827C183.967 170.073 180.788 166.156 178.94 161.58L152.954 97.8688C150.496 91.8745 150.496 85.1553 152.954 79.161L178.933 15.4431C180.782 10.8684 183.962 6.95209 188.061 4.19942C192.161 1.44675 196.992 -0.0159309 201.932 0.000130875H249.463C254.403 -0.0159309 259.234 1.44675 263.334 4.19942C267.433 6.95209 270.613 10.8684 272.462 15.4431L298.441 79.161C300.899 85.1553 300.899 91.8745 298.441 97.8688L272.462 161.58C270.614 166.155 267.437 170.072 263.338 172.825C259.24 175.579 254.41 177.044 249.47 177.03V177.03ZM201.939 20.4849C201.083 20.4824 200.246 20.7356 199.535 21.2118C198.824 21.688 198.272 22.3656 197.95 23.1575L171.971 86.8754C171.544 87.9146 171.544 89.0799 171.971 90.1191L197.957 153.837C198.278 154.63 198.83 155.309 199.541 155.787C200.252 156.264 201.09 156.519 201.946 156.517H249.477C250.334 156.519 251.172 156.264 251.883 155.787C252.594 155.309 253.145 154.63 253.467 153.837L279.446 90.1262C279.659 89.6121 279.769 89.0609 279.769 88.5043C279.769 87.9477 279.659 87.3966 279.446 86.8825L253.46 23.1716C253.137 22.3797 252.585 21.7021 251.874 21.2259C251.163 20.7497 250.326 20.4965 249.47 20.499L201.939 20.4849Z"
              fill="black"/>
        <path d="M612.702 177.03H524.059C517.476 177.022 511.164 174.407 506.509 169.757C501.854 165.107 499.237 158.804 499.231 152.229V24.8004C499.237 18.2258 501.854 11.9221 506.509 7.27253C511.164 2.62298 517.476 0.00746867 524.059 0H612.702V20.4989H524.059C522.918 20.5008 521.823 20.9545 521.016 21.7608C520.208 22.5671 519.754 23.6601 519.752 24.8004V152.229C519.754 153.369 520.208 154.462 521.016 155.269C521.823 156.075 522.918 156.529 524.059 156.531H612.702V177.03Z"
              fill="black"/>
        <path d="M698.636 177.03H678.108V24.8004C678.108 23.6595 677.654 22.5654 676.846 21.7588C676.039 20.9521 674.943 20.4989 673.801 20.4989H663.54V0H673.801C680.385 0.00746543 686.697 2.62275 691.353 7.2721C696.009 11.9215 698.628 18.2252 698.636 24.8004V177.03Z"
              fill="black"/>
        <path d="M585.502 78.2653H545.442V98.7571H585.502V78.2653Z" fill="black"/>
        <path d="M107.215 247.335H91.0368V289.186H82.5631V247.335H66.463V240.03H107.25L107.215 247.335Z" fill="#F8835B"/>
        <path d="M105.743 271.633C105.743 260.957 112.705 253.095 123.883 253.095C135.062 253.095 140.901 260.957 140.901 271.908V273.319H113.786V273.389C114.209 279.291 117.585 283.36 123.77 283.36C128.339 283.36 131.015 281.329 132.774 277.888H140.69C138.571 284.77 133.233 289.876 124.025 289.876C112.373 289.89 105.743 282.091 105.743 271.633ZM132.887 267.84C131.969 262.784 129.229 259.413 123.813 259.413C118.397 259.413 115.198 262.798 114.04 267.84H132.887Z"
              fill="#F8835B"/>
        <path d="M165.757 289.891C154.79 289.891 147.122 282.022 147.122 271.423C147.122 260.825 154.79 253.089 165.686 253.089C174.76 253.089 181.723 258.42 182.775 266.706H174.901C173.842 262.475 170.665 259.76 165.722 259.76C159.183 259.76 155.03 264.696 155.03 271.416C155.03 278.298 159.183 283.213 165.722 283.213C170.714 283.213 174.089 280.329 175 275.555H182.916C182.069 284.271 175.106 289.891 165.757 289.891Z"
              fill="#F8835B"/>
        <path d="M224.122 267.418V289.186H216.319V268.61C216.319 262.968 213.36 260.113 208.862 260.113C203.022 260.113 199.371 264.188 199.371 270.859V289.193H191.604V240.03H199.371V259.203C201.758 255.057 205.769 253.096 210.832 253.096C219.482 253.096 224.122 258.498 224.122 267.418Z"
              fill="#F8835B"/>
        <path d="M266.731 267.417V289.185H258.999V268.609C258.999 263.059 256.04 260.112 251.542 260.112C245.638 260.112 242.051 264.258 242.051 270.858V289.192H234.284V253.793H242.051V259.343C244.367 255.112 248.406 253.095 253.512 253.095C262.162 253.095 266.731 258.567 266.731 267.417Z"
              fill="#F8835B"/>
        <path d="M311.941 271.423C311.941 282.233 304.06 289.891 293.376 289.891C282.692 289.891 274.783 282.233 274.783 271.423C274.783 260.747 282.657 253.089 293.348 253.089C304.039 253.089 311.941 260.747 311.941 271.423ZM282.685 271.423C282.685 278.305 287.12 283.22 293.376 283.22C299.632 283.22 303.968 278.284 303.968 271.423C303.968 264.682 299.534 259.767 293.376 259.767C287.218 259.767 282.685 264.682 282.685 271.423Z"
              fill="#F8835B"/>
        <path d="M349.64 282.544V289.214H318.838V282.544H330.242V246.7H320.038V240.03H337.974V282.544H349.64Z" fill="#F8835B"/>
        <path d="M392.936 271.423C392.936 282.233 385.056 289.891 374.372 289.891C363.688 289.891 355.807 282.233 355.807 271.423C355.807 260.747 363.681 253.089 374.372 253.089C385.063 253.089 392.936 260.747 392.936 271.423ZM363.681 271.423C363.681 278.312 368.115 283.249 374.351 283.249C380.586 283.249 384.943 278.312 384.943 271.451C384.943 264.71 380.515 259.795 374.351 259.795C368.186 259.795 363.681 264.682 363.681 271.423V271.423Z"
              fill="#F8835B"/>
        <path d="M435.699 253.793V289.326C435.699 297.823 428.172 304 417.841 304C408.661 304 400.964 298.803 400.117 290.659H408.139C408.845 294.805 412.99 297.71 417.912 297.71C423.462 297.71 427.798 294.269 427.897 289.707V282.584H427.826C425.785 285.885 421.471 288.275 415.942 288.275C405.957 288.275 399.347 280.758 399.347 270.505C399.347 260.111 406.027 253.095 415.8 253.095C421.774 253.095 425.686 255.69 427.805 258.919H427.875V253.793H435.699ZM427.932 270.435V269.941C427.932 263.975 423.85 259.766 417.735 259.766C411.62 259.766 407.256 264.116 407.256 270.435C407.256 276.753 411.62 281.534 417.735 281.534C423.85 281.534 427.897 276.753 427.897 270.435H427.932Z"
              fill="#F8835B"/>
        <path d="M483.804 253.791L467.774 294.027C465.239 300.374 460.247 303.998 453.708 303.998C450.649 304.031 447.622 303.383 444.846 302.101V294.873C448.927 297.116 451.597 297.468 453.637 297.468C456.942 297.468 460.106 295.078 461.299 291.785L461.723 290.657L444.846 253.791H453.708L465.169 280.968L474.8 253.791H483.804Z"
              fill="#F8835B"/>
        <path d="M573.225 271.556C573.225 282.443 566.051 289.89 556.349 289.89C551.003 289.89 546.992 287.993 544.344 284.058H544.273V302.949H536.442V253.793H544.252V259.554H544.394C547.133 255.408 550.862 253.095 556.553 253.095C565.98 253.095 573.225 260.746 573.225 271.556ZM565.345 271.556C565.345 264.61 560.705 259.766 554.52 259.766C548.164 259.766 544.182 264.54 544.182 271.281V271.838C544.252 278.65 548.327 283.219 554.59 283.219C560.705 283.247 565.345 278.438 565.345 271.556Z"
              fill="#F8835B"/>
        <path d="M579.017 271.423C579.017 260.535 586.615 253.018 596.388 253.018C601.733 253.018 605.462 254.985 607.919 258.92H607.99V253.794H615.757V289.185H607.99V283.424H607.849C605.321 287.571 601.875 289.891 596.176 289.891C586.756 289.891 579.017 282.233 579.017 271.423ZM586.897 271.423C586.897 278.368 591.537 283.22 597.723 283.22C604.078 283.22 608.061 278.439 608.061 271.698V271.14C607.99 264.329 603.908 259.696 597.652 259.696C591.537 259.696 586.904 264.54 586.904 271.423H586.897Z"
              fill="#F8835B"/>
        <path d="M735.097 267.846V289.593H727.33V269.038C727.33 263.488 724.378 260.541 719.88 260.541C713.97 260.541 710.382 264.687 710.382 271.288V289.622H702.714V254.223H710.446V259.772C712.769 255.541 716.801 253.518 721.907 253.518C730.522 253.518 735.097 258.997 735.097 267.846Z"
              fill="#F8835B"/>
        <path d="M743.438 272.056C743.438 261.387 750.4 253.518 761.579 253.518C772.757 253.518 778.597 261.387 778.597 272.338V273.749H751.438V273.819C751.855 279.721 755.23 283.79 761.423 283.79C765.992 283.79 768.661 281.759 770.42 278.318H778.364C776.245 285.2 770.914 290.306 761.699 290.306C750.026 290.299 743.438 282.542 743.438 272.056ZM770.582 268.269C769.671 263.213 766.924 259.843 761.515 259.843C756.106 259.843 752.865 263.213 751.735 268.269H770.582Z"
              fill="#F8835B"/>
        <path d="M693.411 282.818C692.348 283.046 691.264 283.158 690.177 283.149C684.344 283.149 681.181 280.618 681.181 276.196V260.464H693.411V253.794H681.181V242.702H673.413V245.79C673.413 251.967 672.001 253.794 665.893 253.794H663.534V260.464H673.42V276.542C673.42 284.482 679.684 289.891 689.81 289.891C691.009 289.901 692.206 289.809 693.39 289.616L693.411 282.818Z"
              fill="#F8835B"/>
        <path d="M656.809 260.462V253.763C647.968 253.975 643.908 255.984 641.316 260.956V253.791H624.51V260.462H633.584V282.541H624.496V289.211H650.518V282.541H641.274V276.85C641.274 265.843 642.023 260.237 656.809 260.462Z"
              fill="#F8835B"/>
        <path d="M817.573 260.908V254.209C808.74 254.421 804.672 256.43 802.088 261.402V254.237H785.281V260.908H794.348V282.958H785.281V289.629H811.303V282.958H802.123V277.268C802.088 266.281 802.801 260.682 817.573 260.908Z"
              fill="#F8835B"/>
    </g>
    <defs>
        <clipPath id="clip0_705_1912">
            <rect width="884" height="304" fill="black"/>
        </clipPath>
    </defs>
</svg>
